<svg id="sr_rgb" data-name="sr rgb" xmlns="http://www.w3.org/2000/svg" viewBox="0 0 71.56 75.28"><defs><style>.cls-1{fill:#e31837;}</style></defs><path class="cls-1" d="M55.44,4.7A7.5,7.5,0,1,0,44.83,15.3a31.63,31.63,0,0,1,0,44.68A7.5,7.5,0,0,0,55.44,70.59,46.65,46.65,0,0,0,55.44,4.7Z"/><path class="cls-1" d="M36.2,14.41A7.5,7.5,0,0,0,25.59,25a17.88,17.88,0,0,1,0,25.25A7.5,7.5,0,1,0,36.2,60.87,32.89,32.89,0,0,0,36.2,14.41Z"/><path class="cls-1" d="M4.7,22.58a7.49,7.49,0,0,0,0,10.6,6.28,6.28,0,0,1,1.85,4.46A6.26,6.26,0,0,1,4.7,42.1,7.5,7.5,0,0,0,15.3,52.71a21.29,21.29,0,0,0,0-30.14A7.5,7.5,0,0,0,4.7,22.58Z"/></svg>