<svg id="sr_rgb" data-name="sr rgb" xmlns="http://www.w3.org/2000/svg" viewBox="0 0 118.99 118.82"><defs><style>.cls-1{fill:#e31837;}</style></defs><path class="cls-1" d="M66.41,11.93c0-4.86-1.72-9.43-6.78-9.43-5.42,0-7.09,4.77-7.09,9.43V42.69H66.41Z"/><path class="cls-1" d="M42.69,52.5h0L52.5,42.7,30.75,21c-3.43-3.43-7.88-5.44-11.46-1.87-3.83,3.83-1.64,8.38,1.65,11.68L42.65,52.47H11.93c-4.86,0-9.43,1.72-9.43,6.78,0,5.42,4.77,7.09,9.43,7.09H42.69Z"/><path class="cls-1" d="M107.07,52.47H76.31L98,30.76c3.3-3.3,5.49-7.85,1.65-11.68-3.57-3.57-8-1.56-11.46,1.87L66.46,42.7l9.81,9.81,0,0V66.34h30.76c4.66,0,9.42-1.67,9.42-7.09C116.49,54.19,111.92,52.47,107.07,52.47Z"/><path class="cls-1" d="M52.58,106.9c0,4.85,1.73,9.42,6.79,9.42,5.42,0,7.08-4.76,7.08-9.42V76.14H52.58Z"/><path class="cls-1" d="M76.27,66.35l-9.81,9.81L88.21,97.91c3.44,3.43,7.89,5.44,11.46,1.87,3.84-3.84,1.65-8.39-1.65-11.68Z"/><path class="cls-1" d="M21,88.06c-3.3,3.3-5.49,7.85-1.66,11.68,3.58,3.58,8,1.56,11.47-1.87L52.54,76.12l-9.81-9.81Z"/></svg>