<svg id="sr_rgb" data-name="sr rgb" xmlns="http://www.w3.org/2000/svg" viewBox="0 0 124.32 71.78"><defs><style>.cls-1{fill:#e31837;}</style></defs><path class="cls-1" d="M9.59,2.5C4.17,2.5,2.5,7.27,2.5,11.93V59.46c0,4.86,1.73,9.43,6.78,9.43,5.42,0,7.09-4.77,7.09-9.43V11.93C16.37,7.07,14.64,2.5,9.59,2.5Z"/><path class="cls-1" d="M115,2.5c-5.42,0-7.09,4.77-7.09,9.43V59.46c0,4.86,1.73,9.43,6.78,9.43,5.43,0,7.09-4.77,7.09-9.43V11.93C121.82,7.07,120.1,2.5,115,2.5Z"/><path class="cls-1" d="M79.48,44.08H78l10-10c3.3-3.29,5.49-7.84,1.66-11.68-3.58-3.57-8-1.56-11.46,1.87l-9.52,9.52V14.37c0-4.86-1.72-9.43-6.78-9.43-5.42,0-7.09,4.77-7.09,9.43v19.4l-9.51-9.52c-3.43-3.43-7.89-5.44-11.46-1.87-3.84,3.84-1.64,8.39,1.65,11.68L45.51,44.12H43.94c-4.86,0-9.43,1.72-9.43,6.78,0,5.42,4.77,7.09,9.43,7.09H54.77v1.87c0,4.85,1.73,9.42,6.78,9.42,5.43,0,7.09-4.76,7.09-9.42V58H74.7v0h4.78c4.85,0,9.42-1.73,9.42-6.78C88.9,45.74,84.14,44.08,79.48,44.08Z"/></svg>