<svg id="sr_rgb" data-name="sr rgb" xmlns="http://www.w3.org/2000/svg" viewBox="0 0 122.85 104.2"><defs><style>.cls-1{fill:#e31837;}</style></defs><path class="cls-1" d="M16,20.55c-3.43-3.43-7.88-5.45-11.46-1.87C.7,22.51,2.89,27.06,6.18,30.36L27.94,52.11l9.8-9.81Z"/><path class="cls-1" d="M116.66,73.84,94.91,52.09l-9.8,9.81,21.75,21.75c3.43,3.43,7.88,5.44,11.46,1.87C122.15,81.68,120,77.14,116.66,73.84Z"/><path class="cls-1" d="M61.43,52.1,83.17,30.36c3.3-3.3,5.49-7.85,1.66-11.68-3.58-3.58-8-1.56-11.46,1.87L51.64,42.28V11.55c0-4.86-1.73-9.43-6.78-9.43-5.43,0-7.09,4.77-7.09,9.43V42.31H51.62l9.8,9.79L39.67,73.84c-3.29,3.3-5.48,7.84-1.65,11.68,3.58,3.57,8,1.56,11.46-1.87L71.21,61.92V92.65c0,4.85,1.73,9.43,6.78,9.43,5.43,0,7.09-4.77,7.09-9.43V61.89H71.22Z"/></svg>