<svg id="sr_rgb" data-name="sr rgb" xmlns="http://www.w3.org/2000/svg" viewBox="0 0 75.51 79.84"><defs><style>.cls-1{fill:#e31837;}</style></defs><path class="cls-1" d="M59.45,45.64,37.72,67.37,16,45.64c-3.43-3.43-7.88-5.45-11.46-1.87C.7,47.6,2.89,52.15,6.18,55.45L27.94,77.2l9.78-9.79,9.79,9.78L69.26,55.44C72.69,52,74.7,47.56,71.13,44,67.29,40.15,62.75,42.34,59.45,45.64Z"/><path class="cls-1" d="M47.51,2.64l-9.79,9.79L27.94,2.64,6.18,24.39C2.89,27.69.7,32.24,4.53,36.07c3.58,3.58,8,1.56,11.46-1.87L37.72,12.47,59.45,34.2c3.3,3.3,7.84,5.49,11.68,1.66,3.57-3.58,1.56-8-1.87-11.46Z"/></svg>