<svg id="sr_rgb" data-name="sr rgb" xmlns="http://www.w3.org/2000/svg" viewBox="0 0 96.74 96.81"><defs><style>.cls-1{fill:#e31837;}</style></defs><path class="cls-1" d="M94.24,63.55c0-4.86-1.73-9.43-6.78-9.43-5.43,0-7.09,4.77-7.09,9.43V70.8L63.45,53.89C60,50.46,55.57,48.45,52,52c-3.83,3.83-1.64,8.38,1.66,11.68L70.39,80.44H63.48c-4.86,0-9.43,1.73-9.43,6.78,0,5.43,4.77,7.09,9.43,7.09H94.24V80.44h0Z"/><path class="cls-1" d="M33.28,53.89,16.37,70.8V63.55c0-4.66-1.67-9.43-7.09-9.43-5,0-6.78,4.57-6.78,9.43V80.44h0V94.31H33.26c4.66,0,9.43-1.66,9.43-7.09,0-5-4.57-6.78-9.43-6.78H26.35L43.09,63.7c3.3-3.3,5.49-7.85,1.65-11.68C41.17,48.45,36.72,50.46,33.28,53.89Z"/><path class="cls-1" d="M63.48,2.5c-4.66,0-9.43,1.67-9.43,7.09,0,5.06,4.57,6.78,9.43,6.78h6.91L53.65,33.11C50.35,36.41,48.16,41,52,44.79c3.58,3.58,8,1.56,11.46-1.87L80.37,26v7.25c0,4.66,1.66,9.43,7.09,9.43,5.05,0,6.78-4.57,6.78-9.43V16.37h0V2.5Z"/><path class="cls-1" d="M26.35,16.37h6.91c4.86,0,9.43-1.72,9.43-6.78,0-5.42-4.77-7.09-9.43-7.09H2.5V16.37h0V33.26c0,4.86,1.73,9.43,6.78,9.43,5.42,0,7.09-4.77,7.09-9.43V26L33.28,42.92c3.44,3.43,7.89,5.45,11.46,1.87,3.84-3.83,1.65-8.38-1.65-11.68Z"/></svg>