<svg id="sr_rgb" data-name="sr rgb" xmlns="http://www.w3.org/2000/svg" viewBox="0 0 99.24 99.22"><defs><style>.cls-1{fill:#e31837;}</style></defs><path class="cls-1" d="M87.32,42.68H66.37L81.18,27.87c3.43-3.44,5.45-7.89,1.87-11.46-3.83-3.84-8.38-1.65-11.68,1.65L56.57,32.87V11.93c0-4.86-1.73-9.43-6.78-9.43-5.43,0-7.09,4.77-7.09,9.43V32.87L27.89,18.06c-3.44-3.43-7.89-5.44-11.46-1.87-3.84,3.84-1.65,8.38,1.65,11.68L32.89,42.68h-21c-4.86,0-9.43,1.72-9.43,6.78,0,5.42,4.77,7.08,9.43,7.08h21L18.06,71.37c-3.43,3.43-5.44,7.88-1.87,11.46,3.84,3.83,8.38,1.64,11.68-1.65L42.7,66.35v21c0,4.85,1.72,9.42,6.78,9.42,5.42,0,7.09-4.76,7.09-9.42V66.36l14.8,14.8c3.44,3.44,7.89,5.45,11.46,1.87,3.84-3.83,1.65-8.38-1.65-11.67L66.37,56.54H87.32c4.85,0,9.42-1.72,9.42-6.78C96.74,44.34,92,42.68,87.32,42.68ZM52.5,56.54H46.73l-4-4V46.76l4.07-4.07H52.5l4.06,4.05v5.74Z"/></svg>