<svg id="sr_rgb" data-name="sr rgb" xmlns="http://www.w3.org/2000/svg" viewBox="0 0 100.38 53.61"><defs><style>.cls-1{fill:#e31837;}</style></defs><path class="cls-1" d="M67.84,26.77,46.09,5C42.8,1.72,38.25-.47,34.42,3.37c-3.58,3.57-1.57,8,1.87,11.46L48.23,26.77l-11.95,12C33,42,30.8,46.56,34.63,50.39c3.58,3.58,8,1.57,11.46-1.87L58,36.58h0Z"/><path class="cls-1" d="M37.81,26.77,16.06,5C12.77,1.72,8.22-.47,4.38,3.37c-3.57,3.57-1.56,8,1.88,11.46L18.2,26.77l-11.95,12C3,42,.77,46.56,4.6,50.39c3.57,3.58,8,1.57,11.46-1.87L28,36.58h0Z"/><path class="cls-1" d="M64.45,3.37c-3.58,3.57-1.57,8,1.87,11.46L78.26,26.77l-11.94,12C63,42,60.83,46.56,64.66,50.39c3.58,3.58,8,1.57,11.46-1.87L88.07,36.58h0l9.81-9.81L76.12,5C72.83,1.72,68.28-.47,64.45,3.37Z"/></svg>