<svg id="sr_rgb" data-name="sr rgb" xmlns="http://www.w3.org/2000/svg" viewBox="0 0 70.44 70.69"><defs><style>.cls-1{fill:#e31837;}</style></defs><path class="cls-1" d="M67.94,2.5H37.18c-4.66,0-9.43,1.66-9.43,7.09,0,5.05,4.57,6.78,9.43,6.78H54.07V33.26c0,4.66,1.66,9.43,7.09,9.43,5,0,6.78-4.57,6.78-9.43V16.37h0Z"/><path class="cls-1" d="M33.26,54.32H16.37V37.42c0-4.66-1.67-9.42-7.09-9.42-5,0-6.78,4.57-6.78,9.42v16.9h0V68.19H33.26c4.66,0,9.43-1.67,9.43-7.09C42.69,56,38.12,54.32,33.26,54.32Z"/></svg>