<svg id="sr_rgb" data-name="sr rgb" xmlns="http://www.w3.org/2000/svg" viewBox="0 0 65.97 67.08"><defs><style>.cls-1{fill:#e31837;}</style></defs><path class="cls-1" d="M63.15,26.59c-1.43-4.85-6.3-5.22-11-3.85L39.92,26.35V11.93c0-4.86-1.72-9.43-6.78-9.43-5.42,0-7.09,4.77-7.09,9.43V26.35L13.78,22.74c-4.66-1.37-9.53-1-10.95,3.85-1.53,5.21,2.57,8.15,7,9.46l12.6,3.7L12.86,51.37C9.77,55.11,8.18,59.73,12.08,63c4.18,3.46,8.5.85,11.47-2.74L33,48.8l9.43,11.41c3,3.59,7.29,6.2,11.47,2.74,3.9-3.22,2.32-7.84-.78-11.58L43.5,39.75l12.6-3.7C60.57,34.74,64.68,31.8,63.15,26.59Z"/></svg>