<svg id="sr_rgb" data-name="sr rgb" xmlns="http://www.w3.org/2000/svg" viewBox="0 0 75 55.94"><defs><style>.cls-1{fill:#e31837;}</style></defs><path class="cls-1" d="M37.81,27.94,16.06,6.18C12.77,2.89,8.22.7,4.38,4.53.81,8.11,2.82,12.56,6.26,16l11.94,12L6.25,39.88C3,43.18.77,47.72,4.6,51.56c3.57,3.57,8,1.56,11.46-1.87L28,37.74h0Z"/><path class="cls-1" d="M39.07,4.53c-3.57,3.58-1.56,8,1.87,11.46l12,12-12,11.94c-3.3,3.3-5.49,7.84-1.65,11.68,3.57,3.57,8,1.56,11.46-1.87L62.69,37.74h0l9.81-9.8L50.75,6.18C47.45,2.89,42.91.7,39.07,4.53Z"/></svg>