<svg id="sr_rgb" data-name="sr rgb" xmlns="http://www.w3.org/2000/svg" viewBox="0 0 85.71 85.71"><defs><style>.cls-1{fill:#e31837;}</style></defs><path class="cls-1" d="M28,52.63l9.8-9.81L16.06,21.07c-3.29-3.3-7.84-5.49-11.68-1.66C.81,23,2.82,27.44,6.26,30.87l11.94,12L6.25,54.76C3,58.06.77,62.61,4.6,66.44c3.57,3.57,8,1.56,11.46-1.87L28,52.62Z"/><path class="cls-1" d="M81.32,19.41c-3.83-3.83-8.38-1.64-11.68,1.66L47.89,42.82l9.81,9.81h0l12,11.95C73.08,68,77.53,70,81.11,66.44c3.83-3.83,1.64-8.38-1.66-11.68L67.51,42.82,79.45,30.87C82.88,27.44,84.9,23,81.32,19.41Z"/><path class="cls-1" d="M52.62,57.7h0l-9.81-9.81L21.07,69.64c-3.3,3.3-5.49,7.85-1.66,11.68,3.58,3.58,8,1.56,11.46-1.87l12-11.94L54.76,79.45c3.3,3.3,7.85,5.49,11.68,1.66,3.57-3.58,1.56-8-1.87-11.46Z"/><path class="cls-1" d="M42.82,37.81,52.63,28h0l11.95-12C68,12.63,70,8.17,66.44,4.6,62.61.77,58.06,3,54.76,6.25l-11.94,12L30.87,6.26C27.44,2.82,23,.81,19.41,4.38c-3.83,3.84-1.64,8.39,1.66,11.68Z"/></svg>