<svg id="sr_rgb" data-name="sr rgb" xmlns="http://www.w3.org/2000/svg" viewBox="0 0 85.31 88.23"><defs><style>.cls-1{fill:#e31837;}</style></defs><path class="cls-1" d="M73.39,16.46c4.85,0,9.42-1.73,9.42-6.79,0-5.42-4.76-7.08-9.42-7.08H42.63V16.44H11.93c-4.66,0-9.43,1.66-9.43,7.09,0,5,4.57,6.78,9.43,6.78h30.7v13.8H11.93c-4.66,0-9.43,1.66-9.43,7.09,0,5,4.57,6.78,9.43,6.78h30.7V71.77H11.93c-4.66,0-9.43,1.67-9.43,7.09,0,5.06,4.57,6.78,9.43,6.78H42.69V71.79h30.7c4.85,0,9.42-1.73,9.42-6.78,0-5.42-4.76-7.09-9.42-7.09H42.69V44.12h30.7c4.85,0,9.42-1.72,9.42-6.78,0-5.42-4.76-7.09-9.42-7.09H42.69V16.46Z"/></svg>