<svg id="sr_rgb" data-name="sr rgb" xmlns="http://www.w3.org/2000/svg" viewBox="0 0 68.2 105.75"><defs><style>.cls-1{fill:#e31837;}</style></defs><path class="cls-1" d="M41.13,45.14v-19a15.82,15.82,0,0,1,5.35,2.5,15,15,0,0,1,1.28,1.06l.75.67c3.12,2.38,6.35,3,9.33,0s2.27-6.51.2-9.46a18,18,0,0,0-1.89-2.21,13,13,0,0,0-1.24-1.08,28.65,28.65,0,0,0-2.86-1.94,30.72,30.72,0,0,0-8.5-3.35,21.14,21.14,0,0,0-2.47-.42c-.32-4.31-2.16-8-6.73-8-4.81,0-6.66,3.74-7,7.83A23.46,23.46,0,0,0,6.6,28C4.11,36.2,7.38,49.75,20,54l7.28,2v1h0V79.64a16.78,16.78,0,0,1-9.82-4.27l-.08-.07-1.6-1.4a17.12,17.12,0,0,0-2.32-1.74c-3.13-1.94-6.57-2.42-9.23.6s-2,5.94-.27,8.57a15.57,15.57,0,0,0,2.66,3l3.56,3.13.22.2,0,0A30.79,30.79,0,0,0,27,93.69l.4,0c.29,4.35,2.13,8.14,6.73,8.14,4.83,0,6.68-3.78,7-7.9.95-.08,1.84-.2,2.64-.34,14.57-2.32,22-10.57,22-24.55C65.7,51.19,48.12,46.67,41.13,45.14ZM24.25,40.62C18.83,38.68,20,32.16,20,32.1a9.43,9.43,0,0,1,7.27-6.25V41.43ZM41.46,79.81l-.27,0h0V59.59c10.17,2.47,10.53,7,10.53,9.49C51.7,76,49.21,78.6,41.46,79.81Z"/></svg>