<svg id="sr_rgb" data-name="sr rgb" xmlns="http://www.w3.org/2000/svg" viewBox="0 0 75.54 69.11"><defs><style>.cls-1{fill:#e31837;}</style></defs><path class="cls-1" d="M17.49,27.55c-5.42,0-7.09,4.77-7.09,9.43V67.74H24.27V37C24.27,32.12,22.55,27.55,17.49,27.55Z"/><path class="cls-1" d="M66.9,11.23,37.77,1.38h0L8.64,11.23C4,12.79.26,15.89,1.88,20.68c1.74,5.14,6.79,5.19,11.2,3.69L37.77,16l24.69,8.35c4.41,1.5,9.46,1.45,11.2-3.69C75.28,15.89,71.5,12.79,66.9,11.23Z"/><path class="cls-1" d="M37.89,27.55c-5.43,0-7.09,4.77-7.09,9.43V67.74H44.67V37C44.67,32.12,42.94,27.55,37.89,27.55Z"/><path class="cls-1" d="M58.28,27.55c-5.42,0-7.08,4.77-7.08,9.43V67.74H65.07V37C65.07,32.12,63.34,27.55,58.28,27.55Z"/></svg>