<svg id="sr_rgb" data-name="sr rgb" xmlns="http://www.w3.org/2000/svg" viewBox="0 0 70.13 71.41"><defs><style>.cls-1{fill:#e31837;}</style></defs><path class="cls-1" d="M27.44,26.81c0,5.42,4.77,7.09,9.43,7.09H53.76V55H36.87c-4.86,0-9.43,1.73-9.43,6.79,0,5.42,4.77,7.08,9.43,7.08H67.63V20H36.87C32,20,27.44,21.75,27.44,26.81Z"/><path class="cls-1" d="M42.69,44.3c0-5.06-4.57-6.79-9.43-6.79H16.37V16.42H33.26c4.66,0,9.43-1.67,9.43-7.09,0-5.06-4.57-6.78-9.43-6.78H2.5V51.38H33.26C37.92,51.38,42.69,49.72,42.69,44.3Z"/></svg>