<svg id="sr_rgb" data-name="sr rgb" xmlns="http://www.w3.org/2000/svg" viewBox="0 0 100.87 100.71"><defs><style>.cls-1{fill:#e31837;}</style></defs><path class="cls-1" d="M46.77,15.91c0-4.86-1.72-9.43-6.78-9.43-5.42,0-7.08,4.77-7.08,9.43v7.25L16,6.25C12.56,2.82,8.11.81,4.53,4.38.7,8.22,2.89,12.76,6.18,16.06L22.93,32.8H16c-4.86,0-9.43,1.73-9.43,6.78,0,5.43,4.76,7.09,9.43,7.09H46.78V32.8h0Z"/><path class="cls-1" d="M84.88,6.25,68,23.16V15.91c0-4.66-1.67-9.43-7.09-9.43-5.05,0-6.78,4.57-6.78,9.43V32.8h0V46.67H84.86c4.66,0,9.43-1.66,9.43-7.09,0-5-4.58-6.78-9.43-6.78H78L94.69,16.06c3.3-3.3,5.49-7.84,1.65-11.68C92.77.81,88.32,2.82,84.88,6.25Z"/><path class="cls-1" d="M6.59,61.13c0,5.05,4.57,6.78,9.43,6.78h6.91L6.18,84.65C2.89,88,.7,92.5,4.53,96.33c3.58,3.58,8,1.56,11.46-1.87L32.91,77.55V84.8c0,4.66,1.66,9.43,7.08,9.43,5.06,0,6.78-4.57,6.78-9.43V67.91h0V54H16C11.35,54,6.59,55.7,6.59,61.13Z"/><path class="cls-1" d="M78,67.91h6.91c4.85,0,9.43-1.73,9.43-6.78,0-5.43-4.77-7.09-9.43-7.09H54.1V67.91h0V84.8c0,4.86,1.73,9.43,6.78,9.43,5.42,0,7.09-4.77,7.09-9.43V77.55L84.88,94.46c3.44,3.43,7.89,5.45,11.46,1.87C100.18,92.5,98,88,94.69,84.65Z"/></svg>