<svg id="sr_rgb" data-name="sr rgb" xmlns="http://www.w3.org/2000/svg" viewBox="0 0 71.59 74.73"><defs><style>.cls-1{fill:#e31837;}</style></defs><path class="cls-1" d="M59.46,58.36H11.93c-4.86,0-9.43,1.73-9.43,6.78,0,5.42,4.77,7.09,9.43,7.09H59.46c4.86,0,9.43-1.73,9.43-6.78C68.89,60,64.13,58.36,59.46,58.36Z"/><path class="cls-1" d="M59.67,30.43H12.13c-4.86,0-9.43,1.73-9.43,6.78,0,5.43,4.77,7.09,9.43,7.09H59.67c4.85,0,9.42-1.72,9.42-6.78C69.09,32.1,64.33,30.43,59.67,30.43Z"/><path class="cls-1" d="M59.67,2.5H12.13C7.27,2.5,2.7,4.23,2.7,9.28c0,5.42,4.77,7.09,9.43,7.09H59.67c4.85,0,9.42-1.73,9.42-6.78C69.09,4.16,64.33,2.5,59.67,2.5Z"/></svg>