<svg id="sr_rgb" data-name="sr rgb" xmlns="http://www.w3.org/2000/svg" viewBox="0 0 69.66 69.31"><defs><style>.cls-1{fill:#e31837;}</style></defs><path class="cls-1" d="M27,9.58c0,5.05,4.57,6.78,9.42,6.78h6.92L26.57,33.1l-.25.27-9.95,10V36.06c0-4.66-1.66-9.43-7.09-9.43-5,0-6.78,4.58-6.78,9.43V53h0V66.82H33.26c4.66,0,9.43-1.66,9.43-7.09,0-5-4.57-6.78-9.43-6.78H26.35L43.09,36.21l.26-.27L53.29,26v7.26c0,4.66,1.67,9.43,7.09,9.43,5.06,0,6.78-4.58,6.78-9.43V16.36h0V2.49H36.4C31.74,2.49,27,4.15,27,9.58Z"/></svg>