<svg id="sr_rgb" data-name="sr rgb" xmlns="http://www.w3.org/2000/svg" viewBox="0 0 108.03 100.83"><defs><style>.cls-1{fill:#e31837;}</style></defs><path class="cls-1" d="M65.34,50.26c0,5.42,4.77,7.09,9.43,7.09h30.76V43.48H74.77C69.91,43.48,65.34,45.2,65.34,50.26Z"/><path class="cls-1" d="M42.69,50.26c0-5.06-4.57-6.78-9.43-6.78H2.5V57.35H33.26C37.92,57.35,42.69,55.68,42.69,50.26Z"/><path class="cls-1" d="M59.54,40.53c4.7,2.71,8.52-.59,10.86-4.62L85.78,9.27l-12-6.94L58.38,29C56,33.18,55.17,38,59.54,40.53Z"/><path class="cls-1" d="M48.22,60.14c-4.38-2.52-8.16.57-10.59,4.78L22.25,91.56l12,6.93L49.64,71.85C52,67.82,52.91,62.86,48.22,60.14Z"/><path class="cls-1" d="M34.26,2.33l-12,6.94L37.63,35.91c2.43,4.2,6.21,7.3,10.59,4.77C52.91,38,52,33,49.64,29Z"/><path class="cls-1" d="M59.54,60.3c-4.37,2.53-3.58,7.35-1.16,11.55L73.76,98.49l12-6.93L70.4,64.92C68.06,60.88,64.24,57.59,59.54,60.3Z"/></svg>