<svg id="Layer_1" data-name="Layer 1" xmlns="http://www.w3.org/2000/svg" viewBox="0 0 222.24 48.98"><defs><style>.cls-1{fill:#010101;}.cls-2{fill:#ea1f3b;}</style></defs><path class="cls-1" d="M11.27,40.81h1.25c2.6,0,3.17-1,3.17-3.69V28.91L5.71,11C3.69,7.4,3,6.93.47,6.93H0V5.38c2.23,0,4.42.15,6.55.15s4.41-.1,6.59-.15V6.93h-.93c-1.09,0-1.92.37-1.92,1.67a8.6,8.6,0,0,0,1.14,3.06l7.69,13.87,7.17-13.71a12,12,0,0,0,1.4-3.69c0-.88-.62-1.2-2-1.2h-1V5.38c2.13,0,3.53.15,5.14.15s3.48-.1,5.14-.15V6.93h-1.3c-2.12,0-2.59.68-4.2,3.69l-9.2,17.2v9.3c0,3.06,1.14,3.69,3.17,3.69h1v1.55c-2.18,0-4.42-.15-6.6-.15s-4.67.1-6.6.15Z"/><path class="cls-1" d="M57.82,6.88c-7.27,0-14.13,4.47-14.13,16.52,0,8.42,5.51,17.67,14.44,17.67,9.61,0,14-7.07,14-16.63,0-8.36-5.25-17.56-14.34-17.56M58,4.7A19.17,19.17,0,1,1,57.82,43C46.6,43,38.49,34.57,38.49,24.29A19.38,19.38,0,0,1,58,4.7"/><path class="cls-1" d="M94.45,23.14a11.72,11.72,0,0,0,3.53.37c4.67,0,8.52-2.13,8.52-7.54,0-2.28-1.56-8.62-8.78-8.62a29,29,0,0,0-3.27.21ZM85.51,40.81h.94c2.39,0,3.43-.89,3.43-4.26V11.19c0-3.37-1-4.26-3.43-4.26h-.94V5.38c1.82,0,4.31.15,6.65.15,3.48,0,6-.15,8.26-.15,9.2,0,10.86,7.22,10.86,9.61,0,6.8-4.78,8.88-7.38,9.71l7,11.53c2.86,4.68,3.69,5,7.9,5.25v1.09c-1,0-1.92,0-2.91,0-4.57,0-6.7-.57-9.45-5.09l-6.08-9.92c-1.2-1.92-1.87-2-5.87-2.13V35.3c0,4.93.88,5.51,3,5.51h1.5v1.55c-2.28,0-4.46-.15-6.75-.15s-4.83.1-6.65.15Z"/><path class="cls-1" d="M126.86,40.81h.94c2.39,0,3.43-.89,3.43-4.26V11.19c0-3.37-1-4.26-3.43-4.26h-.94V5.38c1.82,0,4.32.15,6.65.15s4.47-.1,6.76-.15V6.93h-1.51c-2.08,0-3,.58-3,5.51V24.65L147.18,12c.52-.57,2.49-2.65,2.49-3.69s-.73-1.35-1.71-1.35H147V5.38c1.92,0,4.11.15,6.13.15s4.11-.1,6.18-.15V6.93h-.93c-2.55,0-3.43.47-6.5,3.69l-10,10.55,13.4,15.69c2.91,3.43,4.42,4,6.55,4h.78v1.55c-1.67,0-3.38-.15-5-.15s-3.38.1-5,.15c-.26-1.5-.42-2.28-3.38-5.66L138.5,24.49l-2.7,2.86V35.3c0,4.93.88,5.51,3,5.51h1.51v1.55c-2.29,0-4.47-.15-6.76-.15s-4.83.1-6.65.15Z"/><path class="cls-2" d="M207.33,43.05c-8.31,0-15.5-5.13-15.5-16.36V0H173.26V49h49V31.11c-1.47,7.12-6.65,11.94-14.91,11.94"/><path class="cls-2" d="M207.33,33c4.46,0,5.82-3.92,5.82-7.75V0H201.76V25.28c0,4,1.42,7.75,5.57,7.75"/></svg>