<svg width="22" height="22" viewBox="0 0 22 22" fill="none" xmlns="http://www.w3.org/2000/svg">
  <g clip-path="url(#clip0_431_7017)">
    <path d="M1.70726 0.291916C1.31673 -0.0986078 0.683569 -0.0986076 0.293044 0.291917C-0.09748 0.682441 -0.0974802 1.31561 0.293044 1.70613L20.2617 21.6748C20.6523 22.0653 21.2854 22.0653 21.676 21.6748C22.0665 21.2843 22.0665 20.6511 21.676 20.2606L1.70726 0.291916Z" fill="#212529"/>
    <path d="M20.2617 0.305644L0.293044 20.2743C-0.0974802 20.6649 -0.09748 21.298 0.293044 21.6886C0.683569 22.0791 1.31673 22.0791 1.70726 21.6886L21.676 1.71986C22.0665 1.32933 22.0665 0.696168 21.676 0.305644C21.2854 -0.0848808 20.6523 -0.0848804 20.2617 0.305644Z" fill="#212529"/>
  </g>
  <defs>
    <clipPath id="clip0_431_7017">
      <rect width="22" height="22" fill="white"/>
    </clipPath>
  </defs>
</svg>
