<svg fill="#FFFFFF" version="1.1" xmlns="http://www.w3.org/2000/svg" x="0px" y="0px" width="194px" height="194px"
     viewBox="0 0 194 194" style="enable-background:new 0 0 194 194;" xml:space="preserve">
  <path
    d="M97,0C43.5,0,0,43.5,0,97s43.5,97,97,97c53.5,0,97-43.5,97-97S150.5,0,97,0z M97,185c-48.5,0-88-39.5-88-88C9,48.5,48.5,9,97,9s88,39.5,88,88C185,145.5,145.5,185,97,185z"/>
  <path class="st0"
        d="M126.7,103.7V80.3h-23.3V71c0-3.8,2.4-6.3,4.5-6.3h18.9V41.4h-18.9c-14.5,0-26.3,14.1-26.3,29.8v9.1H64.4v23.3h17.1v52.9h21.8v-52.9H126.7z"></path>
  /</svg>
