<svg fill="#FFFFFF" version="1.1" xmlns="http://www.w3.org/2000/svg" xmlns:xlink="http://www.w3.org/1999/xlink"
     xmlns:a="http://ns.adobe.com/AdobeSVGViewerExtensions/3.0/" x="0px" y="0px" width="194px" height="194px"
     viewBox="0 0 194 194" style="enable-background:new 0 0 194 194;" xml:space="preserve"><path d="M97,0C43.5,0,0,43.5,0,97s43.5,97,97,97c53.5,0,97-43.5,97-97S150.5,0,97,0z M97,185c-48.5,0-88-39.5-88-88C9,48.5,48.5,9,97,9s88,39.5,88,88C185,145.5,145.5,185,97,185z"/>
  <path class="st0"
        d="M97,56.8c13.1,0,14.6,0,19.8,0.3c4.8,0.2,7.4,1,9.1,1.7c2.3,0.9,3.9,2,5.6,3.7c1.7,1.7,2.8,3.3,3.7,5.6c0.7,1.7,1.5,4.3,1.7,9.1c0.2,5.2,0.3,6.7,0.3,19.8s0,14.6-0.3,19.8c-0.2,4.8-1,7.4-1.7,9.1c-0.9,2.3-2,3.9-3.7,5.6c-1.7,1.7-3.3,2.8-5.6,3.7c-1.7,0.7-4.3,1.5-9.1,1.7c-5.2,0.2-6.7,0.3-19.8,0.3s-14.6,0-19.8-0.3c-4.8-0.2-7.4-1-9.1-1.7c-2.3-0.9-3.9-2-5.6-3.7c-1.7-1.7-2.8-3.3-3.7-5.6c-0.7-1.7-1.5-4.3-1.7-9.1c-0.2-5.2-0.3-6.7-0.3-19.8s0-14.6,0.3-19.8c0.2-4.8,1-7.4,1.7-9.1c0.9-2.3,2-3.9,3.7-5.6c1.7-1.7,3.3-2.8,5.6-3.7c1.7-0.7,4.3-1.5,9.1-1.7C82.4,56.9,83.9,56.8,97,56.8M97,48c-13.3,0-15,0.1-20.2,0.3c-5.2,0.2-8.8,1.1-11.9,2.3c-3.2,1.3-6,2.9-8.7,5.7c-2.7,2.7-4.4,5.5-5.7,8.7c-1.2,3.1-2,6.7-2.3,11.9C48.1,82,48,83.7,48,97c0,13.3,0.1,15,0.3,20.2c0.2,5.2,1.1,8.8,2.3,11.9c1.3,3.2,2.9,6,5.7,8.7c2.7,2.7,5.5,4.4,8.7,5.7c3.1,1.2,6.7,2,11.9,2.3c5.2,0.2,6.9,0.3,20.2,0.3s15-0.1,20.2-0.3c5.2-0.2,8.8-1.1,11.9-2.3c3.2-1.3,6-2.9,8.7-5.7c2.7-2.7,4.4-5.5,5.7-8.7c1.2-3.1,2-6.7,2.3-11.9c0.2-5.2,0.3-6.9,0.3-20.2s-0.1-15-0.3-20.2c-0.2-5.2-1.1-8.8-2.3-11.9c-1.3-3.2-2.9-6-5.7-8.7c-2.7-2.7-5.5-4.4-8.7-5.7c-3.1-1.2-6.7-2-11.9-2.3C112,48.1,110.3,48,97,48L97,48z"/>
  <path class="st0"
        d="M97,71.8c-13.9,0-25.2,11.3-25.2,25.2s11.3,25.2,25.2,25.2s25.2-11.3,25.2-25.2S110.9,71.8,97,71.8z M97,113.3c-9,0-16.3-7.3-16.3-16.3S88,80.7,97,80.7S113.3,88,113.3,97S106,113.3,97,113.3z"/>
  <circle class="st0" cx="123.2" cy="70.8" r="5.9"/></svg>
