<svg fill="#FFFFFF" version="1.1" xmlns="http://www.w3.org/2000/svg" xmlns:xlink="http://www.w3.org/1999/xlink" x="0px" y="0px"
     width="194px" height="194px" viewBox="0 0 194 194" style="enable-background:new 0 0 194 194;" xml:space="preserve"><path d="M97,0C43.5,0,0,43.5,0,97s43.5,97,97,97s97-43.5,97-97S150.5,0,97,0z M97,185c-48.5,0-88-39.5-88-88S48.5,9,97,9 s88,39.5,88,88S145.5,185,97,185z"/>
  <path
    d="M25.1,99.3c-0.3,0-0.6,0.2-0.6,0.6l-1.1,8.2l1.1,8c0,0.3,0.3,0.6,0.6,0.6c0.3,0,0.5-0.2,0.6-0.6l0,0v0c0,0,0,0,0,0l1.3-8 l-1.3-8.2C25.6,99.5,25.4,99.3,25.1,99.3z"/>
  <path
    d="M31.1,94.8c-0.1-0.4-0.3-0.6-0.6-0.6c-0.3,0-0.6,0.3-0.6,0.6c0,0-1.4,13.2-1.4,13.2l1.4,12.9c0,0.3,0.3,0.6,0.6,0.6 c0.3,0,0.6-0.2,0.6-0.6l1.6-12.9L31.1,94.8z"/>
  <path
    d="M53.9,82.6c-0.6,0-1.1,0.5-1.1,1.1L51.7,108l1.2,15.7c0,0.6,0.5,1.1,1.1,1.1c0.6,0,1.1-0.5,1.1-1.1v0l1.3-15.7L55,83.7 C55,83.1,54.5,82.6,53.9,82.6z"/>
  <path
    d="M42.1,91.1c-0.5,0-0.8,0.4-0.9,0.8L40,108l1.3,15.6c0,0.5,0.4,0.8,0.9,0.8c0.5,0,0.8-0.4,0.9-0.8l1.5-15.6L43,91.9 C43,91.4,42.6,91.1,42.1,91.1z"/>
  <path
    d="M65.9,124.8c0.7,0,1.3-0.6,1.4-1.4l1.1-15.5l-1.1-32.4c0-0.8-0.6-1.4-1.4-1.4c-0.7,0-1.3,0.6-1.4,1.4c0,0-1,32.4-1,32.4 l1,15.5C64.6,124.2,65.2,124.8,65.9,124.8z"/>
  <path
    d="M90.5,124.9c1,0,1.8-0.8,1.9-1.9v0v0l0.8-15l-0.8-37.4c0-1-0.9-1.9-1.9-1.9c-1,0-1.9,0.8-1.9,1.9L87.9,108 c0,0,0.7,15,0.7,15C88.6,124.1,89.5,124.9,90.5,124.9z"/>
  <path
    d="M78.1,124.9c0.9,0,1.6-0.7,1.6-1.6v0l1-15.2l-1-32.6c0-0.9-0.7-1.6-1.6-1.6c-0.9,0-1.6,0.7-1.6,1.6L75.6,108l0.9,15.2 C76.5,124.2,77.2,124.9,78.1,124.9z"/>
  <path
    d="M48,124.7c0.5,0,0.9-0.4,1-1l1.4-15.7l-1.4-15c0-0.6-0.5-1-1-1c-0.5,0-1,0.4-1,1L45.8,108l1.2,15.7 C47.1,124.3,47.5,124.7,48,124.7z"/>
  <path
    d="M36.3,123.9c0.4,0,0.7-0.3,0.7-0.7l1.6-15.1L37,92.3c0-0.4-0.4-0.7-0.7-0.7c-0.4,0-0.7,0.3-0.7,0.7c0,0-1.4,15.7-1.4,15.7 l1.4,15.1C35.6,123.6,35.9,123.9,36.3,123.9z"/>
  <path
    d="M84.3,74.9c-1,0-1.7,0.8-1.7,1.7L81.7,108l0.8,15.1c0,1,0.8,1.7,1.7,1.7c1,0,1.7-0.8,1.7-1.7v0l0.9-15.1L86,76.6 C86,75.7,85.2,74.9,84.3,74.9z"/>
  <path
    d="M59.9,124.9c0.7,0,1.2-0.5,1.2-1.2l1.2-15.6l-1.2-29.9c0-0.7-0.6-1.2-1.2-1.2c-0.7,0-1.2,0.5-1.2,1.2c0,0-1.1,29.9-1.1,29.9 l1.1,15.6C58.7,124.3,59.2,124.9,59.9,124.9z"/>
  <path
    d="M73.5,123.4L73.5,123.4l1-15.4l-1-33.5c0-0.8-0.7-1.5-1.5-1.5c-0.8,0-1.5,0.7-1.5,1.5L69.6,108l0.9,15.4 c0,0.8,0.7,1.5,1.5,1.5C72.8,124.9,73.4,124.2,73.5,123.4L73.5,123.4z"/>
  <path
    d="M152.5,88.8c-2.5,0-4.8,0.5-7,1.4C144,73.8,130.4,61,113.7,61c-4.1,0-8.1,0.8-11.6,2.2c-1.4,0.5-1.7,1.1-1.7,2.1v57.5 c0,1.1,0.9,2,2,2.1c0,0,49.9,0,50.2,0c10,0,18.1-8.1,18.1-18.1C170.6,96.9,162.5,88.8,152.5,88.8z"/>
  <path
    d="M96.7,65.3c-1.1,0-2,0.9-2,2l-0.8,40.8l0.8,14.8c0,1.1,0.9,2,2,2c1.1,0,2-0.9,2-2v0l0.9-14.8l-0.9-40.8 C98.6,66.2,97.7,65.3,96.7,65.3z"/>
</svg>
