<svg fill="#FFFFFF" version="1.1" xmlns="http://www.w3.org/2000/svg" xmlns:xlink="http://www.w3.org/1999/xlink"
     xmlns:a="http://ns.adobe.com/AdobeSVGViewerExtensions/3.0/" x="0px" y="0px" width="194px" height="194px"
     viewBox="0 0 194 194" style="enable-background:new 0 0 194 194;" xml:space="preserve"><path d="M97,0C43.5,0,0,43.5,0,97s43.5,97,97,97c53.5,0,97-43.5,97-97S150.5,0,97,0z M97,185c-48.5,0-88-39.5-88-88C9,48.5,48.5,9,97,9s88,39.5,88,88C185,145.5,145.5,185,97,185z"/>
  <path id="YouTube__x28_alt_x29__1_" class="st0"
        d="M150.9,75.4c0-8.9-7.2-16.1-16.1-16.1H59.2c-8.9,0-16.1,7.2-16.1,16.1v43.2c0,8.9,7.2,16.1,16.1,16.1h75.6c8.9,0,16.1-7.2,16.1-16.1V75.4z M86.2,115.2V74.6L117,94.9L86.2,115.2z"/>
</svg>
