<?xml version="1.0" standalone="no"?>
<!DOCTYPE svg PUBLIC "-//W3C//DTD SVG 20010904//EN"
 "http://www.w3.org/TR/2001/REC-SVG-20010904/DTD/svg10.dtd">
<svg version="1.0" xmlns="http://www.w3.org/2000/svg"
 width="512.000000pt" height="512.000000pt" viewBox="0 0 512.000000 512.000000"
 preserveAspectRatio="xMidYMid meet">
<metadata>
Created by potrace 1.11, written by Peter Selinger 2001-2013
</metadata>
<g transform="translate(0.000000,512.000000) scale(0.100000,-0.100000)"
fill="#000000" stroke="none">
<path d="M0 2560 l0 -2560 2560 0 2560 0 -1 923 0 922 -29 -101 c-84 -292
-203 -501 -399 -695 -127 -126 -223 -195 -376 -269 -337 -163 -765 -204 -1175
-114 -579 128 -988 529 -1134 1112 -63 249 -60 162 -63 1825 l-4 1517 -969 0
-970 0 0 -2560z"/>
<path d="M2980 3741 c0 -919 4 -1406 11 -1458 55 -404 249 -613 571 -613 111
0 175 14 265 56 177 84 298 291 332 569 7 62 11 522 11 1458 l0 1367 -595 0
-595 0 0 -1379z"/>
</g>
</svg>
